<svg width="1400" height="900" viewBox="0 0 1400 900" xmlns="http://www.w3.org/2000/svg" role="img" aria-labelledby="title desc">
  <title id="title">SmartLogicX Cart and Checkout Illustration</title>
  <desc id="desc">A professional illustration of a checkout interface with cart items, payment card, and order summary.</desc>
  <defs>
    <linearGradient id="bg" x1="0" y1="0" x2="1" y2="1">
      <stop offset="0%" stop-color="#0f172a"/>
      <stop offset="100%" stop-color="#1d4ed8"/>
    </linearGradient>
    <linearGradient id="panel" x1="0" y1="0" x2="0" y2="1">
      <stop offset="0%" stop-color="#ffffff"/>
      <stop offset="100%" stop-color="#f5f8ff"/>
    </linearGradient>
    <linearGradient id="accent" x1="0" y1="0" x2="1" y2="0">
      <stop offset="0%" stop-color="#2563eb"/>
      <stop offset="100%" stop-color="#38bdf8"/>
    </linearGradient>
    <filter id="shadow" x="-20%" y="-20%" width="140%" height="160%">
      <feDropShadow dx="0" dy="18" stdDeviation="18" flood-color="#0b1220" flood-opacity="0.28"/>
    </filter>
  </defs>

  <rect width="1400" height="900" fill="url(#bg)"/>
  <circle cx="1120" cy="140" r="220" fill="#60a5fa" opacity="0.14"/>
  <circle cx="230" cy="760" r="170" fill="#38bdf8" opacity="0.16"/>

  <rect x="110" y="120" width="1180" height="660" rx="28" fill="url(#panel)" filter="url(#shadow)"/>

  <rect x="150" y="162" width="720" height="68" rx="14" fill="#f0f5ff"/>
  <rect x="182" y="186" width="182" height="20" rx="10" fill="#1d4ed8" opacity="0.92"/>
  <rect x="610" y="186" width="220" height="20" rx="10" fill="#cbd8ff"/>

  <rect x="150" y="256" width="720" height="152" rx="18" fill="#ffffff" stroke="#dbe6ff"/>
  <rect x="176" y="282" width="110" height="100" rx="12" fill="#e6efff"/>
  <rect x="306" y="294" width="250" height="18" rx="9" fill="#163d99"/>
  <rect x="306" y="324" width="180" height="14" rx="7" fill="#90a8e9"/>
  <rect x="306" y="352" width="138" height="14" rx="7" fill="#b7c7f1"/>
  <rect x="640" y="318" width="188" height="28" rx="14" fill="url(#accent)"/>
  <text x="734" y="338" text-anchor="middle" font-size="16" font-family="Arial, sans-serif" fill="#ffffff">Update Cart</text>

  <rect x="150" y="430" width="720" height="152" rx="18" fill="#ffffff" stroke="#dbe6ff"/>
  <rect x="176" y="456" width="110" height="100" rx="12" fill="#e6efff"/>
  <rect x="306" y="468" width="260" height="18" rx="9" fill="#163d99"/>
  <rect x="306" y="498" width="190" height="14" rx="7" fill="#90a8e9"/>
  <rect x="306" y="526" width="130" height="14" rx="7" fill="#b7c7f1"/>
  <rect x="640" y="492" width="188" height="28" rx="14" fill="url(#accent)"/>
  <text x="734" y="512" text-anchor="middle" font-size="16" font-family="Arial, sans-serif" fill="#ffffff">Save for Later</text>

  <rect x="904" y="162" width="346" height="520" rx="22" fill="#f8fbff" stroke="#dbe6ff"/>
  <rect x="938" y="198" width="278" height="36" rx="10" fill="#143a9a"/>
  <text x="1077" y="222" text-anchor="middle" font-size="18" font-family="Arial, sans-serif" fill="#ffffff">Checkout</text>

  <rect x="938" y="260" width="278" height="88" rx="14" fill="#ffffff" stroke="#dbe6ff"/>
  <rect x="958" y="278" width="90" height="12" rx="6" fill="#9fb6ef"/>
  <rect x="958" y="300" width="210" height="16" rx="8" fill="#1e429f"/>
  <rect x="958" y="326" width="130" height="12" rx="6" fill="#b5c6ef"/>

  <rect x="938" y="368" width="278" height="88" rx="14" fill="#ffffff" stroke="#dbe6ff"/>
  <rect x="958" y="386" width="78" height="12" rx="6" fill="#9fb6ef"/>
  <rect x="958" y="408" width="170" height="16" rx="8" fill="#1e429f"/>
  <rect x="958" y="434" width="115" height="12" rx="6" fill="#b5c6ef"/>

  <rect x="938" y="486" width="278" height="112" rx="14" fill="#ffffff" stroke="#dbe6ff"/>
  <rect x="958" y="508" width="110" height="12" rx="6" fill="#8ca6e8"/>
  <rect x="958" y="532" width="190" height="14" rx="7" fill="#1e429f"/>
  <rect x="958" y="556" width="100" height="12" rx="6" fill="#8ca6e8"/>
  <rect x="1100" y="542" width="96" height="36" rx="18" fill="url(#accent)"/>
  <text x="1148" y="565" text-anchor="middle" font-size="14" font-family="Arial, sans-serif" fill="#ffffff">Pay Now</text>

  <rect x="938" y="620" width="278" height="42" rx="21" fill="#0f172a"/>
  <text x="1077" y="647" text-anchor="middle" font-size="16" font-family="Arial, sans-serif" fill="#ffffff">Secure Payment Enabled</text>

  <text x="150" y="740" font-size="22" font-family="Arial, sans-serif" fill="#e6eeff">SmartLogicX Checkout Experience: Fast, Trusted, Conversion-Ready</text>
</svg>
